<?xml version="1.0" encoding="utf-8"?>
<!-- Generator: Adobe Illustrator 15.1.0, SVG Export Plug-In . SVG Version: 6.00 Build 0)  -->
<!DOCTYPE svg PUBLIC "-//W3C//DTD SVG 1.1//EN" "http://www.w3.org/Graphics/SVG/1.1/DTD/svg11.dtd">
<svg version="1.1" id="Laag_1" xmlns="http://www.w3.org/2000/svg" xmlns:xlink="http://www.w3.org/1999/xlink" x="0px" y="0px"
	 width="660.48px" height="656.628px" viewBox="185.6 57.6 660.48 656.628" enable-background="new 185.6 57.6 660.48 656.628"
	 xml:space="preserve">
<g>
	<path fill="#FFFFFF" d="M512,119.04c88.32,0,96,0,130.56,0c30.722,0,49.922,7.68,61.44,11.52c15.36,7.68,26.88,11.52,38.4,23.04
		c11.52,11.52,19.198,23.04,23.04,38.4c3.84,11.52,11.52,26.88,11.52,61.44s0,46.08,0,130.56c0,84.48,0,96,0,130.56
		c0,30.722-7.68,49.922-11.52,61.44c-7.682,15.36-11.521,26.88-23.04,38.4c-11.521,11.52-23.04,19.198-38.4,23.04
		c-11.52,3.84-26.88,11.52-61.44,11.52c-34.56,0-46.078,0-130.56,0s-96,0-130.56,0c-30.72,0-49.92-7.68-61.44-11.52
		c-15.36-7.682-26.88-11.521-38.4-23.04c-11.52-11.521-19.2-23.04-23.04-38.4c-3.84-11.52-11.52-26.88-11.52-61.44
		c0-34.56,0-46.078,0-130.56c0-84.48,0-96,0-130.56c0-30.72,7.68-49.92,11.52-61.44c7.68-15.36,11.52-26.88,23.04-38.4
		s23.04-19.2,38.4-23.04c11.52-3.84,26.88-11.52,61.44-11.52S423.68,119.04,512,119.04 M512,57.6c-88.32,0-99.84,0-134.4,3.84
		c-34.56,0-57.6,7.68-76.8,15.36c-23.04,7.68-42.24,19.2-57.6,38.4c-19.2,15.36-30.72,34.56-38.4,57.6
		c-7.68,19.2-15.36,42.24-15.36,76.8s-3.84,46.08-3.84,134.4c0,88.32,0,99.84,3.84,134.4c0,34.56,7.68,57.6,15.36,80.64
		c7.68,23.04,19.2,38.4,38.4,57.6c19.2,19.2,34.56,30.722,57.6,38.4c19.2,7.68,46.08,15.36,80.64,15.36s46.08,3.84,134.4,3.84
		s99.84,0,134.4-3.84c34.56,0,57.6-7.682,80.64-15.36s38.4-19.2,57.602-38.4c19.198-19.198,30.72-34.56,38.398-57.6
		c7.681-19.2,15.36-46.08,15.36-80.64c0-34.562,3.84-46.08,3.84-134.4c0-88.32,0-99.84-3.84-134.4c0-34.56-7.682-57.6-15.36-80.64
		s-19.2-38.4-38.398-57.6c-19.2-19.2-34.562-30.72-57.602-38.4c-19.2-7.68-46.08-15.36-80.64-15.36
		C611.84,57.6,600.32,57.6,512,57.6L512,57.6z"/>
	<path fill="#FFFFFF" d="M512,218.88c-92.16,0-165.12,72.96-165.12,165.12S419.84,549.12,512,549.12S677.12,476.16,677.12,384
		S604.16,218.88,512,218.88z M512,491.52c-61.44,0-107.52-49.92-107.52-107.52S450.56,276.48,512,276.48S619.52,326.4,619.52,384
		S573.44,491.52,512,491.52z"/>
	<circle fill="#FFFFFF" cx="684.8" cy="211.2" r="38.4"/>
</g>
</svg>
