<?xml version="1.0" encoding="utf-8"?>
<!-- Generator: Adobe Illustrator 15.1.0, SVG Export Plug-In . SVG Version: 6.00 Build 0)  -->
<!DOCTYPE svg PUBLIC "-//W3C//DTD SVG 1.1//EN" "http://www.w3.org/Graphics/SVG/1.1/DTD/svg11.dtd">
<svg version="1.1" id="Layer_1" xmlns="http://www.w3.org/2000/svg" xmlns:xlink="http://www.w3.org/1999/xlink" x="0px" y="0px"
	 width="412px" height="412px" viewBox="0 0 412 412" enable-background="new 0 0 412 412" xml:space="preserve">
<path fill="#FFFFFF" d="M349.641,0H69.481C33.073,0,1.001,26.452,1.001,62.86v280.16c0,36.408,32.072,68.98,68.48,68.98h173.465
	c-0.324-54,0.078-114.134-0.184-166.387c-11.064-0.112-22.139-0.684-33.203-0.854c0.041-18.467,0.018-37.317,0.023-55.78
	c11.059-0.138,22.121-0.164,33.18-0.269c0.338-17.957-0.34-36.025,0.354-53.966c1.104-14.205,6.52-28.563,17.141-38.377
	c12.859-12.239,31.142-16.397,48.388-16.912c18.231-0.163,36.467-0.076,54.708-0.068c0.072,19.24,0.072,38.482-0.008,57.722
	c-11.789-0.02-23.584,0.023-35.372-0.025c-7.47-0.467-15.146,5.198-16.505,12.609c-0.178,12.875-0.063,25.757-0.057,38.627
	c17.283,0.074,34.576-0.02,51.861,0.045c-1.266,18.629-3.58,37.168-6.285,55.637c-15.271,0.137-30.555,1.514-45.818,1.602
	C311.04,297.84,311.209,358,311.077,412h38.563c36.408,0,63.359-32.572,63.359-68.98V62.86C413,26.452,386.049,0,349.641,0z"/>
</svg>
