<?xml version="1.0" encoding="utf-8"?>
<!-- Generator: Adobe Illustrator 15.1.0, SVG Export Plug-In . SVG Version: 6.00 Build 0)  -->
<!DOCTYPE svg PUBLIC "-//W3C//DTD SVG 1.1//EN" "http://www.w3.org/Graphics/SVG/1.1/DTD/svg11.dtd">
<svg version="1.1" id="Ebene_2" xmlns="http://www.w3.org/2000/svg" xmlns:xlink="http://www.w3.org/1999/xlink" x="0px" y="0px"
	 width="768px" height="768px" viewBox="128 0 768 768" enable-background="new 128 0 768 768" xml:space="preserve">
<g>
	<g>
		<path fill="#FFFFFF" d="M839.12,0H184.688C153.392,0,128,24.816,128,55.344v657.265C128,743.184,153.392,768,184.688,768H839.12
			c31.296,0,56.88-24.816,56.88-55.44V55.344C896,24.816,870.416,0,839.12,0z M355.76,654.432H241.808V287.952H355.76V654.432z
			 M298.784,237.84c-36.528,0-66.048-29.616-66.048-66.048s29.52-66.048,66.048-66.048c36.432,0,66,29.616,66,66.048
			C364.832,208.224,335.216,237.84,298.784,237.84z M782.384,654.432h-113.76V476.208c0-42.528-0.816-97.2-59.232-97.2
			c-59.279,0-68.304,46.32-68.304,94.128v181.296H427.232V287.952H536.48v50.063h1.535c15.217-28.8,52.368-59.184,107.809-59.184
			c115.248,0,136.56,75.888,136.56,174.624V654.432z"/>
	</g>
</g>
</svg>
